<?xml version="1.0" encoding="UTF-8"?>
<svg id="Layer_2" data-name="Layer 2" xmlns="http://www.w3.org/2000/svg" viewBox="0 0 98.18 82.18">
  <defs>
    <style>
      .cls-1 {
        fill: none;
        stroke: #000;
        stroke-width: 4px;
      }

      .cls-1, .cls-2 {
        stroke-linecap: round;
        stroke-miterlimit: 10;
      }

      .cls-3 {
        stroke-width: 0px;
      }

      .cls-3, .cls-2 {
        fill: #000;
      }

      .cls-2 {
        stroke: #fff;
        stroke-width: 7px;
      }
    </style>
  </defs>
  <g id="Layer_1-2" data-name="Layer 1">
    <path class="cls-3" d="M43.8,3.78c-1.3-.6-2.8-.2-3.8.8l-17.6,17.7H7.1c-2,0-3.6,1.6-3.6,3.5v30.5c0,2,1.6,3.5,3.6,3.5h15.3l17.7,17.8c.7.7,1.6,1.1,2.5,1.1.5,0,.8-.1,1.2-.3,1.3-.6,2.1-1.9,2.1-3.3V7.08c0-1.5-.7-2.8-2.1-3.3ZM59.9,56.28c-.7.8-1.7,1.2-2.7,1.2-.8,0-1.7-.3-2.4-.9-1.5-1.3-1.6-3.6-.3-5.1,8.9-10,.9-19.7,0-20.8-1.3-1.5-1.2-3.7.3-5s3.7-1.2,5,.3c4.8,5.2,10.9,18.3.1,30.3ZM70.8,65.78c-.7.8-1.7,1.2-2.7,1.2-.8,0-1.7-.3-2.4-.9-1.5-1.3-1.6-3.6-.3-5.1,17.7-19.7.7-39.1,0-39.9-1.3-1.5-1.2-3.7.3-5.1,1.5-1.3,3.7-1.2,5.1.3.2.3,21.8,25.1,0,49.5ZM82.1,72.98c-.7.8-1.7,1.2-2.7,1.2-.8,0-1.7-.3-2.4-.9-1.5-1.3-1.6-3.6-.3-5.1,10.1-11.2,13.2-23.7,9.1-37.1-3-10.2-9.1-17-9.1-17.1-1.3-1.5-1.2-3.7.3-5.1,1.5-1.3,3.7-1.2,5.1.3.2.3,28.2,32.3,0,63.8Z"/>
    <line class="cls-2" x1="3.5" y1="3.5" x2="94.68" y2="78.68"/>
    <line class="cls-1" x1="3.5" y1="3.5" x2="94.68" y2="78.68"/>
  </g>
</svg>